<?xml version="1.0" encoding="iso-8859-1"?>
<!-- Uploaded to: SVG Repo, www.svgrepo.com, Generator: SVG Repo Mixer Tools -->
<svg height="800px" width="800px" version="1.1" id="Layer_1" xmlns="http://www.w3.org/2000/svg" xmlns:xlink="http://www.w3.org/1999/xlink" 
	 viewBox="0 0 392.533 392.533" xml:space="preserve">
<path style="fill:#FFC10D;" d="M370.747,196.267c0-96.194-78.287-174.481-174.481-174.481c-96.194,0-174.481,78.287-174.481,174.481
	s78.287,174.481,174.481,174.481S370.747,292.461,370.747,196.267z"/>
<path style="fill:#194F82;" d="M196.267,0C87.984,0,0,87.984,0,196.267s87.984,196.267,196.267,196.267
	s196.267-87.984,196.267-196.267S304.549,0,196.267,0z M21.786,196.267c0-96.194,78.287-174.481,174.481-174.481
	s174.481,78.287,174.481,174.481s-78.287,174.481-174.481,174.481S21.786,292.461,21.786,196.267z"/>
<path style="fill:#FFFFFF;" d="M328.016,196.267c0-72.663-59.087-131.749-131.749-131.749S64.517,123.604,64.517,196.267
	s59.087,131.749,131.749,131.749S328.016,268.929,328.016,196.267z"/>
<path style="fill:#194F82;" d="M196.267,42.667c-84.687,0-153.6,68.913-153.6,153.6s68.913,153.6,153.6,153.6
	s153.6-68.913,153.6-153.6S280.954,42.667,196.267,42.667z M64.517,196.267c0-72.663,59.087-131.749,131.749-131.749
	s131.749,59.087,131.749,131.749s-59.087,131.749-131.749,131.749S64.517,268.929,64.517,196.267z"/>
<path style="fill:#56ACE0;" d="M196.267,86.303c-42.731,0-79.644,24.501-97.875,60.121h31.741c6.012,0,10.925,4.848,10.925,10.925
	c0,6.012-4.848,10.925-10.925,10.925H90.053c-1.099,3.943-1.875,8.016-2.457,12.154h18.812c6.012,0,10.925,4.848,10.925,10.925
	c0,6.012-4.848,10.925-10.925,10.925H86.626c3.103,57.859,51.071,104.016,109.64,104.016c60.638,0,109.964-49.325,109.964-109.964
	S256.905,86.303,196.267,86.303z"/>
<path style="fill:#194F82;" d="M248.048,185.341h-40.857v-78.998c0-6.012-4.848-10.925-10.925-10.925s-10.925,4.848-10.925,10.925
	v89.923c0,6.012,4.848,10.925,10.925,10.925h51.782c6.012,0,10.925-4.848,10.925-10.925S254.061,185.341,248.048,185.341z"/>
</svg>