<?xml version="1.0" encoding="utf-8"?>
<!-- Uploaded to: SVG Repo, www.svgrepo.com, Generator: SVG Repo Mixer Tools -->
<svg xmlns="http://www.w3.org/2000/svg" xmlns:xlink="http://www.w3.org/1999/xlink" version="1.1" id="maildelivery"  viewBox="0 0 199.2285 227.8944" enable-background="new 0 0 199.2285 227.8944" xml:space="preserve" width="512" height="512">
<g>
	<path fill="#D0E8FF" d="M14.0974,71.373c-1.1018,1.2588-1.3813,3.0957-0.5056,4.6172l36.9656,64.0254L63.646,81.9843   L14.0974,71.373z"/>
	<path fill="#D0E8FF" d="M98.5527,85.7851c-0.543,1.6777-2.1016,2.7695-3.8008,2.7695c-0.2773,0-0.5586-0.0293-0.8398-0.0879   L71.47,83.6601l-13.2991,58.9639l105.156-60.7119l-57.7153-17.9658L98.5527,85.7851z"/>
	<path fill="#D0E8FF" d="M123.6572,8.1171l-15.5857,48.2188l56.8035,17.6816L127.9082,9.9901   C127.032,8.4706,125.3025,7.788,123.6572,8.1171z"/>
	<polygon fill="#D0E8FF" points="113.4395,13.7206 68.748,39.5224 24.0579,65.3241 92.0527,79.8866  "/>
	<path fill="#1C71DA" d="M174.0215,80.9218c0.8398-3.1035,0.418-6.3438-1.1875-9.1211L134.8379,5.9901   c-3.3032-5.7188-10.6331-7.6807-16.3716-4.4053c-0.0073,0.0039-0.0156,0.0049-0.0229,0.0088l-0.0107,0.0059   c-0.0054,0.0039-0.0112,0.0049-0.0166,0.0078L18.6924,59.1835l-7.6396,4.4102c-0.019,0.0107-0.031,0.0293-0.0498,0.04   c-5.6775,3.3398-7.6294,10.6504-4.3408,16.3545l37.9961,65.8125c1.6016,2.7715,4.1914,4.7539,7.2969,5.582   c1.0352,0.2773,2.0859,0.4141,3.1289,0.4141c2.0859,0,4.1445-0.5469,5.9961-1.6152L168.416,88.2128   C171.1934,86.6073,173.1855,84.0194,174.0215,80.9218z M68.748,39.5224l44.6914-25.8018l-21.3867,66.166L24.0579,65.3241   L68.748,39.5224z M50.5574,140.0155L13.5918,75.9902c-0.8757-1.5215-0.5962-3.3584,0.5056-4.6172L63.646,81.9843L50.5574,140.0155z    M58.1709,142.6239L71.47,83.6601l22.4421,4.8066c0.2812,0.0586,0.5625,0.0879,0.8398,0.0879c1.6992,0,3.2578-1.0918,3.8008-2.7695   l7.0588-21.8389l57.7153,17.9658L58.1709,142.6239z M108.0715,56.3359l15.5857-48.2188c1.6453-0.3291,3.3748,0.3535,4.251,1.873   l36.9668,64.0273L108.0715,56.3359z"/>
	<path fill="#1C71DA" d="M196.2637,109.5468l-23.1797-6.2129c-2.1328-0.5645-4.3242,0.6953-4.8984,2.8281   s0.6953,4.3262,2.8281,4.8984l13.1191,3.5166l-66.4902,38.3877l4,6.9297l67.4197-38.9248l-3.908,14.5869   c-0.5703,2.1348,0.6953,4.3281,2.8281,4.8984c0.3477,0.0938,0.6953,0.1387,1.0391,0.1387c1.7656-0.002,3.3828-1.1797,3.8594-2.9668   l6.2109-23.1816C199.6621,112.3124,198.3965,110.1191,196.2637,109.5468z"/>
	<path fill="#1C71DA" d="M156.2637,177.5468l-23.1797-6.2129c-2.125-0.5742-4.3242,0.6934-4.8984,2.8281   c-0.5742,2.1328,0.6953,4.3262,2.8281,4.8984l13.1191,3.5166l-66.4902,38.3877l4,6.9297l67.4197-38.9248l-3.908,14.5869   c-0.5703,2.1348,0.6953,4.3281,2.8281,4.8984c0.3477,0.0938,0.6953,0.1387,1.0391,0.1387c1.7656-0.002,3.3828-1.1797,3.8594-2.9668   l6.2109-23.1816C159.6621,180.3124,158.3965,178.119,156.2637,177.5468z"/>
</g>
<path fill="#FF5D5D" d="M8,203.7182c-1.0234,0-2.0469-0.3906-2.8281-1.1714c-1.5625-1.5625-1.5625-4.0952,0-5.6572l14.1426-14.1421  c1.5605-1.5615,4.0938-1.5615,5.6562,0c1.5625,1.5625,1.5625,4.0952,0,5.6572l-14.1426,14.1421  C10.0479,203.3275,9.0234,203.7182,8,203.7182z"/>
<path fill="#FF5D5D" d="M22.1426,203.7167c-1.0234,0-2.0479-0.3906-2.8281-1.1714L5.1719,188.4027  c-1.5625-1.5625-1.5625-4.0947,0-5.6572c1.5605-1.5615,4.0957-1.5615,5.6562,0l14.1426,14.1426  c1.5625,1.5625,1.5625,4.0947,0,5.6572C24.1904,203.3261,23.166,203.7167,22.1426,203.7167z"/>
<path fill="#00D40B" d="M14,43.7187c-7.7197,0-14-6.2803-14-14s6.2803-14,14-14s14,6.2803,14,14S21.7197,43.7187,14,43.7187z   M14,23.7187c-3.3086,0-6,2.6914-6,6s2.6914,6,6,6s6-2.6914,6-6S17.3086,23.7187,14,23.7187z"/>
<path fill="#FFC504" d="M183.3145,56.3437c-1.0234,0-2.0469-0.3906-2.8281-1.1714l-11.3145-11.3135  c-0.75-0.75-1.1719-1.7676-1.1719-2.8286s0.4219-2.0786,1.1719-2.8286l11.3145-11.3135c1.5625-1.5615,4.0938-1.5615,5.6562,0  l11.3135,11.3135c1.5625,1.5625,1.5625,4.0947,0,5.6572l-11.3135,11.3135C185.3623,55.953,184.3379,56.3437,183.3145,56.3437z   M177.6572,41.0302l5.6572,5.6567l5.6562-5.6567l-5.6562-5.6567L177.6572,41.0302z"/>
</svg>