<?xml version="1.0" encoding="iso-8859-1"?>
<!-- Uploaded to: SVG Repo, www.svgrepo.com, Generator: SVG Repo Mixer Tools -->
<svg height="800px" width="800px" version="1.1" id="Layer_1" xmlns="http://www.w3.org/2000/svg" xmlns:xlink="http://www.w3.org/1999/xlink" 
	 viewBox="0 0 511.999 511.999" xml:space="preserve">
<path style="fill:#2196F3;" d="M164.089,196.875l-35.2-60.968c-4.119-7.134-13.24-9.578-20.373-5.459L72.606,151.18l-9.299,5.369
	c-27.822,16.063-37.354,51.638-21.291,79.461L178.04,471.612c16.063,27.822,51.638,37.354,79.461,21.291l9.299-5.369l35.909-20.732
	c7.134-4.119,9.578-13.24,5.459-20.373l-35.2-60.968c-4.119-7.134-13.24-9.578-20.373-5.459l-35.909,20.732l-93.965-162.751
	l35.909-20.732C165.763,213.13,168.207,204.009,164.089,196.875z"/>
<path style="fill:#ECF0F1;" d="M477.762,116.13c0-57.909-60.07-104.855-134.17-104.855s-134.17,46.946-134.17,104.855
	c0,48.929,42.885,90.029,100.881,101.6c2.087,16.092,2.967,43.634-10.522,64.131c0,0,57.614-22.203,83.8-65.613
	C438.151,202.95,477.762,163.156,477.762,116.13z"/>
<g>
	<path style="fill:#231F20;" d="M282.732,379.822c-7.22-12.506-23.267-16.806-35.775-9.586l-26.145,15.095l-82.69-143.223
		l26.145-15.095c12.506-7.22,16.806-23.269,9.586-35.775l-35.2-60.968c-3.497-6.058-9.145-10.392-15.902-12.203
		c-6.757-1.812-13.815-0.883-19.873,2.616L57.67,146.784c-33.161,19.146-44.563,61.701-25.418,94.862l136.025,235.601
		c9.275,16.064,24.25,27.554,42.166,32.356c5.984,1.603,12.054,2.396,18.087,2.396c12.032,0,23.909-3.156,34.609-9.333l45.21-26.101
		c12.505-7.22,16.805-23.27,9.585-35.775L282.732,379.822z M297.072,457.037l-45.208,26.101
		c-10.849,6.263-23.486,7.927-35.584,4.685c-12.099-3.241-22.212-11.001-28.474-21.849L51.779,230.372
		c-12.929-22.393-5.228-51.13,17.165-64.059l45.208-26.101c0.572-0.329,1.196-0.487,1.813-0.487c1.259,0,2.485,0.653,3.159,1.82
		l35.2,60.968c1.003,1.739,0.406,3.969-1.333,4.972l-26.145,15.095l-10.534-18.246c-3.114-5.394-10.009-7.241-15.401-4.127
		c-5.393,3.113-7.241,10.009-4.127,15.401l123.459,213.836c2.088,3.617,5.878,5.639,9.774,5.639c1.912,0,3.851-0.487,5.627-1.512
		c5.393-3.113,7.241-10.009,4.127-15.401l-7.685-13.311l26.145-15.095c1.134-0.655,2.218-0.51,2.761-0.363
		c0.543,0.145,1.555,0.56,2.21,1.696l35.2,60.968C299.407,453.803,298.81,456.033,297.072,457.037z"/>
	<path style="fill:#231F20;" d="M445.408,33.103C418.094,11.756,381.935,0,343.593,0s-74.5,11.756-101.814,33.103
		c-28.135,21.988-43.63,51.474-43.63,83.027c0,51.13,41.431,95.765,101.754,110.82c0.999,14.044,0.171,33.961-9.538,48.714
		c-2.694,4.093-2.435,9.457,0.639,13.273c2.186,2.713,5.44,4.201,8.782,4.201c1.359,0,2.731-0.246,4.052-0.754
		c2.426-0.936,58.147-22.791,86.887-66.332c27.309-7.421,50.938-20.992,68.561-39.421c19.465-20.355,29.753-44.733,29.753-70.499
		C489.037,84.576,473.543,55.091,445.408,33.103z M380.912,205.294c-2.919,0.711-5.433,2.558-6.985,5.131
		c-13.232,21.936-35.73,38.235-53.209,48.426c2.972-15.16,2.342-30.422,0.767-42.57c-0.622-4.795-4.233-8.66-8.975-9.607
		c-54.057-10.785-91.811-48.018-91.811-90.544c0-51.601,55.13-93.58,122.895-93.58s122.895,41.979,122.895,93.58
		C466.488,156.989,432.097,192.821,380.912,205.294z"/>
	<path style="fill:#231F20;" d="M288.707,104.86c-2.965,0-5.874,1.195-7.971,3.292c-2.097,2.097-3.303,5.006-3.303,7.983
		c0,2.965,1.206,5.874,3.303,7.971c2.097,2.097,5.006,3.303,7.971,3.303s5.874-1.206,7.971-3.303
		c2.097-2.097,3.303-5.006,3.303-7.971c0-2.977-1.206-5.874-3.303-7.983C294.582,106.055,291.684,104.86,288.707,104.86z"/>
	<path style="fill:#231F20;" d="M343.593,104.86c-6.224,0-11.275,5.04-11.275,11.275c0,6.224,5.051,11.275,11.275,11.275
		c6.224,0,11.275-5.051,11.275-11.275C354.868,109.9,349.816,104.86,343.593,104.86z"/>
	<path style="fill:#231F20;" d="M398.478,104.86c-2.965,0-5.874,1.195-7.971,3.304c-2.097,2.086-3.303,4.995-3.303,7.971
		c0,2.965,1.206,5.874,3.303,7.971c2.097,2.097,5.006,3.303,7.971,3.303s5.874-1.206,7.971-3.303
		c2.097-2.097,3.303-5.006,3.303-7.971c0-2.977-1.206-5.885-3.303-7.971C404.352,106.055,401.444,104.86,398.478,104.86z"/>
</g>
</svg>