<?xml version="1.0" encoding="utf-8"?><!-- Uploaded to: SVG Repo, www.svgrepo.com, Generator: SVG Repo Mixer Tools -->
<svg width="800px" height="800px" viewBox="0 0 320 320" fill="none" xmlns="http://www.w3.org/2000/svg">
<path fill-rule="evenodd" clip-rule="evenodd" d="M75.1295 138.94C54.2556 144.795 35.1803 153.735 20.6323 176.1C6.51436 197.803 6.39757 223.438 20.6323 245.064C33.4353 264.516 54.9653 273.257 84.2048 276.01C122.641 279.628 154.612 273.488 188.001 254.966C145.515 255.359 88.0036 254.324 75.198 251.528C67.6831 249.888 60.4399 246.219 55.7478 238.21C50.3091 228.927 53.0949 211.131 53.0949 211.131C60.3852 182.892 66.3348 162.435 75.1295 138.94ZM271.779 191.976C297.744 167.206 314.033 138.876 307.591 92.1046C304.059 66.4639 287.592 52.8665 259.912 45.6861C230.561 38.0722 211.516 57.4808 191.14 79.1C219.085 79.1205 242.205 79.3464 242.292 79.7288C242.509 80.695 241.85 92.1593 241.85 92.1593V99.2621C241.85 99.2621 261.238 154.179 271.779 191.976Z" fill="#FBAD36"/>
<path d="M241.85 99.2623C241.85 99.2623 284.595 220.334 277.655 226.669C271.821 231.996 273.678 230.22 273.678 230.22M241.85 99.2623V92.1594M241.85 99.2623L236.905 213.795M235.219 252.861C228.589 255.968 95.5322 255.968 75.198 251.528C67.6832 249.888 60.44 246.22 55.7478 238.211C50.3091 228.927 53.095 211.132 53.095 211.132M235.219 252.861L236.522 222.674M235.219 252.861C242.292 252.375 270.583 234.215 273.678 230.22M53.095 211.132C64.3876 167.389 72.4633 142.318 92.8793 95.7108M53.095 211.132C58.5382 215.039 64.7241 216.132 88.9013 216.861C97.383 217.199 105.179 217.474 112.5 217.681M92.8793 95.7108C92.8793 95.7108 93.5975 82.4394 94.2055 80.6174C94.8135 78.7954 242.074 78.7628 242.292 79.729C242.509 80.6952 241.85 92.1594 241.85 92.1594M92.8793 95.7108C126.283 95.7583 144.753 95.2928 177.311 93.698M241.85 92.1594C233.02 92.2582 228.174 92.3691 219.747 92.6864M236.522 222.674C252.101 228.833 260.838 229.436 273.678 230.22M236.522 222.674L236.905 213.795M236.905 213.795C226.932 215.037 213.755 215.669 184.931 216.861C182.863 216.979 180.824 217.089 178.807 217.19M63.7041 225.337V231.552M72.1031 233.772V239.987M233.009 99.2623C232.869 102.133 232.835 103.54 233.009 105.033M223.726 106.365C223.545 107.654 223.524 108.816 223.726 112.136M112.5 217.681C116.5 212.944 119.755 206.139 128.414 182.276C114.71 175.173 112.5 152.089 131.066 141.879C131.066 141.879 144.328 119.169 147.422 121.902C150.516 124.635 146.98 139.215 148.748 140.547C150.516 141.879 157.761 140.122 162.452 141.879C170.124 144.752 165.619 155.637 173.503 157.86C175.509 158.426 178.807 158.452 178.807 158.452M112.5 217.681C137.343 218.382 156.71 218.295 178.807 217.19M178.807 217.19C177.542 218.285 166.459 189.613 170.408 186.271C172.586 184.429 176.155 184.496 178.807 183.164C184.008 180.552 187.648 168.514 187.648 168.514M143.886 164.519C146.733 167.467 152.727 168.514 151.842 169.846C150.958 171.178 147.991 171.322 142.559 172.51M157.147 153.865C157.057 155.072 157.041 155.888 157.147 157.86M178.807 158.452C178.807 158.452 189.859 157.86 190.743 158.748C191.627 159.636 187.648 168.514 187.648 168.514M178.807 158.452C180.236 164.017 182.227 166.235 187.648 168.514" stroke="#000000" stroke-width="5" stroke-linecap="round"/>
</svg>